# xmcd
#
# Track frame offsets:
#	150
#	13398
#	25638
#	38815
#	51558
#	65741
#	78689
#	89511
#	101138
#	112678
#	123582
#	136436
#	148886
#	159245
#	170457
#	183691
#	202015
#	216113
#	226912
#	238896
#	251635
#
# Disc length: 3510 seconds
#
# Revision: 0
# Processed by: cddbd v1.5.1PL2 Copyright (c) Steve Scherf et al.
# Submitted via: MusicManager 7.3.0.0 
#
DISCID=3c0db415
DTITLE=Howlin' Wolf - His Best
DYEAR=1900
DGENRE=blues
TTITLE0=Moanin' At Midnight
TTITLE1=How Many More Years
TTITLE2=Evil
TTITLE3=Forty-Four
TTITLE4=Smokestack Lighting
TTITLE5=I Asked For Water (She Gave Me Gasoline)
TTITLE6=Who's Been Talking?
TTITLE7=Sitting On Top Of The World
TTITLE8=Howlin' For My Darlin'
TTITLE9=Wang Dang Doodle
TTITLE10=Back Door Man
TTITLE11=Spoonful
TTITLE12=Shake For Me
TTITLE13=Red Rooster
TTITLE14=I Ain't Superstitious
TTITLE15=Goin' Down Slow
TTITLE16=Three Hundred Pounds Of Joy
TTITLE17=Hidden Charms
TTITLE18=Built For Comfort
TTITLE19=Killing Floor
TTITLE20=Down In The Bottom
EXTD=
EXTT0=
EXTT1=
EXTT2=
EXTT3=
EXTT4=
EXTT5=
EXTT6=
EXTT7=
EXTT8=
EXTT9=
EXTT10=
EXTT11=
EXTT12=
EXTT13=
EXTT14=
EXTT15=
EXTT16=
EXTT17=
EXTT18=
EXTT19=
EXTT20=
PLAYORDER=
